<?xml version="1.0" encoding="UTF-8" standalone="no"?>
<!-- Created with Inkscape (http://www.inkscape.org/) -->
<svg
   xmlns:dc="http://purl.org/dc/elements/1.1/"
   xmlns:cc="http://creativecommons.org/ns#"
   xmlns:rdf="http://www.w3.org/1999/02/22-rdf-syntax-ns#"
   xmlns:svg="http://www.w3.org/2000/svg"
   xmlns="http://www.w3.org/2000/svg"
   xmlns:sodipodi="http://sodipodi.sourceforge.net/DTD/sodipodi-0.dtd"
   xmlns:inkscape="http://www.inkscape.org/namespaces/inkscape"
   width="1052.3622"
   height="744.09448"
   id="svg2"
   sodipodi:version="0.32"
   inkscape:version="0.46"
   sodipodi:docname="ikido.svg"
   inkscape:output_extension="org.inkscape.output.svg.inkscape"
   inkscape:export-filename="/home/felipe/Desktop/ikido.png"
   inkscape:export-xdpi="79.68"
   inkscape:export-ydpi="79.68"
   version="1.0">
  <defs
     id="defs4">
    <inkscape:perspective
       sodipodi:type="inkscape:persp3d"
       inkscape:vp_x="0 : 526.18109 : 1"
       inkscape:vp_y="0 : 1000 : 0"
       inkscape:vp_z="744.09448 : 526.18109 : 1"
       inkscape:persp3d-origin="372.04724 : 350.78739 : 1"
       id="perspective10" />
    <inkscape:perspective
       id="perspective2415"
       inkscape:persp3d-origin="160 : 106.66667 : 1"
       inkscape:vp_z="320 : 160 : 1"
       inkscape:vp_y="0 : 1000 : 0"
       inkscape:vp_x="0 : 160 : 1"
       sodipodi:type="inkscape:persp3d" />
  </defs>
  <sodipodi:namedview
     id="base"
     pagecolor="#ffffff"
     bordercolor="#666666"
     borderopacity="1.0"
     inkscape:pageopacity="0.0"
     inkscape:pageshadow="2"
     inkscape:zoom="0.49548923"
     inkscape:cx="564.22449"
     inkscape:cy="269.67832"
     inkscape:document-units="px"
     inkscape:current-layer="layer1"
     showgrid="false"
     inkscape:window-width="1280"
     inkscape:window-height="742"
     inkscape:window-x="0"
     inkscape:window-y="0" />
  <metadata
     id="metadata7">
    <rdf:RDF>
      <cc:Work
         rdf:about="">
        <dc:format>image/svg+xml</dc:format>
        <dc:type
           rdf:resource="http://purl.org/dc/dcmitype/StillImage" />
      </cc:Work>
    </rdf:RDF>
  </metadata>
  <g
     inkscape:label="Camada 1"
     inkscape:groupmode="layer"
     id="layer1">
    <g
       id="g2602">
      <g
         transform="matrix(0.4582254,0,0,0.4582254,-1.3938413,-59.088814)"
         id="g2443">
        <rect
           style="fill:#000000;fill-opacity:1;stroke:#000000;stroke-width:1.58316803;stroke-miterlimit:4;stroke-dasharray:none;stroke-opacity:1"
           id="rect2435"
           width="212.83087"
           height="505.72601"
           x="442.28528"
           y="161.69276"
           ry="19.950018" />
        <path
           d="M 76.628696,662.74024 C 103.32053,653.39629 152.3265,618.79964 152.3265,609.2999 C 152.3265,607.67565 158.41149,595.95268 165.84869,583.24877 C 174.15717,569.05666 183.61629,543.32349 190.38172,516.50752 C 200.3097,477.15612 201.35294,466.52372 200.98991,408.39102 C 200.64231,352.73046 201.4248,343.91788 206.71448,343.91788 C 216.76107,343.91788 284.68204,359.83243 292.12978,363.93153 C 295.91897,366.01705 301.61617,367.72334 304.79023,367.72334 C 316.67948,367.72334 314.69327,375.43044 301.14749,381.85832 L 287.11361,388.51782 L 289.17111,410.8531 C 290.30274,423.13753 292.25487,438.09826 293.50921,444.09921 C 296.20745,457.00829 296.91133,456.91323 260.92883,448.49862 C 229.76219,441.21023 219.36555,442.66713 222.30585,453.91087 C 223.80028,459.62553 230.81563,462.28164 254.27261,466.01378 C 292.73789,472.13389 296.63671,475.35369 293.58733,498.4813 C 292.2801,508.39571 290.11159,540.11042 288.7684,568.95841 L 286.32624,621.40932 L 296.85398,626.20605 C 318.2769,635.96703 334.85111,621.54702 345.94441,583.49602 C 352.09145,562.41096 352.05591,562.13465 343.19472,562.13465 C 333.40345,562.13465 330.9881,555.01726 328.10887,517.68016 L 325.72376,486.75068 L 343.17405,487.05254 C 352.77169,487.21853 366.76547,489.57328 374.27133,492.28534 C 388.76238,497.52126 395.34951,506.58857 384.66221,506.58857 C 366.04768,506.58857 365.5144,574.50684 384.03184,586.87128 C 393.1454,592.95655 406.20877,589.69365 412.75965,579.69579 C 419.13876,569.95999 419.02724,568.61887 410.36708,550.93084 C 390.88473,511.1389 392.33253,500.31721 416.93537,501.83538 C 447.61316,503.72839 443.79051,496.04101 409.59106,487.06577 C 360.92609,474.29428 363.01944,475.62666 375.14196,465.1388 C 385.91596,455.81758 398.31633,435.35361 398.31633,426.89476 C 398.31633,423.60568 392.97231,422.92334 380.54894,424.62614 C 355.53514,428.05465 346.95563,434.55327 344.11675,452.22188 C 342.34729,463.23484 339.97272,466.95588 335.28987,466.05405 C 327.60648,464.57434 326.13675,446.25575 331.38539,417.38755 C 336.94746,386.79518 340.53918,384.87785 377.43352,392.80605 C 414.08141,400.68129 415.27891,400.757 413.38648,395.07977 C 411.71067,390.05229 404.94958,387.41229 313.0134,355.88727 C 275.91656,343.16669 233.30048,328.12808 218.31105,322.46813 C 189.77493,311.69294 157.67566,309.03529 144.06275,316.32072 C 136.49602,320.3703 136.53226,320.75227 145.66267,333.18293 C 150.80081,340.17825 157.97399,352.42266 161.60309,360.39273 C 168.36078,375.23366 176.64137,422.83263 173.41505,428.29084 C 172.42748,429.96156 170.66211,442.45941 169.49191,456.06389 C 166.97509,485.32481 144.71541,555.49392 131.11571,577.03726 C 121.51127,592.25169 95.36263,617.68075 89.322125,617.68075 C 82.699949,617.68075 65.039795,590.30705 65.039795,580.04259 C 65.039795,567.34547 56.265722,574.94696 47.162644,595.53058 C 36.951046,618.62083 35.93924,644.32561 44.611836,660.33218 C 50.253535,670.74481 53.142135,670.96208 76.628696,662.74024 z M 228.13414,569.71003 C 240.9981,562.73105 281.18275,524.21671 281.33352,518.7219 C 281.36692,517.50396 282.88475,514.15696 284.70651,511.28408 C 290.0804,502.80937 285.37041,501.83048 260.83138,506.32211 C 230.01941,511.96193 207.61101,527.75308 200.17235,549.06838 C 195.43942,562.6304 195.35233,566.52891 199.66624,571.72687 C 206.23402,579.64052 210.36983,579.34756 228.13414,569.71003 z M 276.42638,410.37481 C 275.26725,401.10059 273.16944,392.22687 271.7646,390.65543 C 269.33815,387.94124 229.07795,396.77399 224.91896,400.93293 C 220.58898,405.26291 228.44365,410.53041 246.45427,415.37495 C 256.87578,418.17816 267.0986,421.99389 269.17166,423.85438 C 276.59627,430.51757 278.50146,426.97762 276.42638,410.37481 z M 354.67295,312.42857 C 351.3997,310.5173 333.54561,304.43652 314.99719,298.91568 C 296.44876,293.39484 270.56032,284.3428 257.4673,278.80002 C 233.14542,268.50363 218.4162,266.62357 196.4658,271.01365 C 178.20827,274.66518 181.35176,283.10441 202.91312,288.32284 C 213.2784,290.83151 236.04238,296.24443 253.49973,300.35159 C 270.95708,304.45875 291.47751,309.69241 299.10068,311.98198 C 316.16266,317.10642 363.33358,317.48548 354.67295,312.42857 z M 377.48653,280.31301 C 388.79147,275.769 388.69903,274.69123 375.50274,257.18648 C 350.14257,223.54642 333.52467,188.0067 335.82538,172.3309 L 337.55405,160.55265 L 318.66338,163.05863 C 308.27354,164.43688 294.13352,167.5304 287.24113,169.93308 C 276.33791,173.73398 275.03742,175.65508 277.23295,184.71769 C 280.29068,197.33915 303.52525,236.79329 307.90034,236.79329 C 309.62144,236.79329 311.0296,239.50541 311.0296,242.82025 C 311.0296,251.08352 298.37947,247.58553 251.04764,226.23426 C 210.96806,208.15446 187.70444,204.56843 174.26185,214.39788 C 161.02899,224.074 169.3876,232.82572 191.86195,232.82572 C 202.83261,232.82572 222.08179,236.23883 234.63795,240.41045 C 247.19409,244.58205 272.45544,250.19673 290.77421,252.88758 C 310.76279,255.82366 326.68044,260.37927 330.58156,264.28039 C 336.33438,270.03321 363.54819,284.81174 367.17532,284.15272 C 367.9366,284.01441 372.57665,282.28654 377.48653,280.31301 z"
           style="fill:#000000"
           id="path2195"
           sodipodi:nodetypes="cssssssscccssssscccsscccsssssssssssssssssssssssssssccsssssccssssccssssssccscccsssssssssssc" />
        <g
           id="g2437"
           transform="translate(0,17.106982)">
          <text
             id="text2419"
             y="391.45663"
             x="535.61224"
             style="font-size:430.75018311px;font-style:italic;font-variant:normal;font-weight:bold;font-stretch:normal;text-indent:0;text-align:center;text-decoration:none;line-height:normal;letter-spacing:normal;word-spacing:normal;text-transform:none;direction:ltr;block-progression:tb;writing-mode:lr-tb;text-anchor:middle;opacity:1;fill:#ffffff;fill-opacity:1;fill-rule:nonzero;stroke:none;stroke-width:1px;stroke-linecap:butt;stroke-linejoin:miter;marker:none;marker-start:none;marker-mid:none;marker-end:none;stroke-miterlimit:4;stroke-dasharray:none;stroke-dashoffset:0;stroke-opacity:1;visibility:visible;display:inline;overflow:visible;enable-background:accumulate;font-family:El Abogado Loco;-inkscape-font-specification:El Abogado Loco Bold Italic"
             xml:space="preserve"><tspan
               style="font-style:italic;font-variant:normal;font-weight:bold;font-stretch:normal;fill:#ffffff;font-family:El Abogado Loco;-inkscape-font-specification:El Abogado Loco Bold Italic"
               id="tspan2423"
               y="391.45663"
               x="535.61224"
               sodipodi:role="line">D</tspan></text>
          <text
             id="text2425"
             y="637.53516"
             x="533.19348"
             style="font-size:430.75018311px;font-style:italic;font-variant:normal;font-weight:bold;font-stretch:normal;text-indent:0;text-align:center;text-decoration:none;line-height:normal;letter-spacing:normal;word-spacing:normal;text-transform:none;direction:ltr;block-progression:tb;writing-mode:lr-tb;text-anchor:middle;opacity:1;fill:#ffffff;fill-opacity:1;fill-rule:nonzero;stroke:none;stroke-width:1px;stroke-linecap:butt;stroke-linejoin:miter;marker:none;marker-start:none;marker-mid:none;marker-end:none;stroke-miterlimit:4;stroke-dasharray:none;stroke-dashoffset:0;stroke-opacity:1;visibility:visible;display:inline;overflow:visible;enable-background:accumulate;font-family:El Abogado Loco;-inkscape-font-specification:El Abogado Loco Bold Italic"
             xml:space="preserve"><tspan
               style="font-style:italic;font-variant:normal;font-weight:bold;font-stretch:normal;fill:#ffffff;font-family:El Abogado Loco;-inkscape-font-specification:El Abogado Loco Bold Italic"
               id="tspan2429"
               y="637.53516"
               x="533.19348"
               sodipodi:role="line">O</tspan></text>
        </g>
      </g>
      <g
         transform="matrix(0.4795532,0,0,0.4795532,296.27569,-152.25767)"
         id="g3245">
        <rect
           style="fill:#ffffff;fill-opacity:1;stroke:#000000;stroke-width:11.9829998;stroke-miterlimit:4;stroke-dasharray:none;stroke-opacity:1"
           id="rect2454"
           width="212.83087"
           height="505.72601"
           x="476.3559"
           y="342.24561"
           ry="19.950018" />
        <path
           d="M 110.69931,843.29308 C 137.39115,833.94913 186.39712,799.35248 186.39712,789.85274 C 186.39712,788.22849 192.48211,776.50552 199.91931,763.80161 C 208.22779,749.6095 217.68691,723.87633 224.45234,697.06036 C 234.38032,657.70896 235.42356,647.07656 235.06053,588.94386 C 234.71293,533.2833 235.49542,524.47072 240.7851,524.47072 C 250.83169,524.47072 318.75266,540.38527 326.2004,544.48437 C 329.98959,546.56989 335.68679,548.27618 338.86085,548.27618 C 350.7501,548.27618 348.76389,555.98328 335.21811,562.41116 L 321.18423,569.07066 L 323.24173,591.40594 C 324.37336,603.69037 326.32549,618.6511 327.57983,624.65205 C 330.27807,637.56113 330.98195,637.46607 294.99945,629.05146 C 263.83281,621.76307 253.43617,623.21997 256.37647,634.46371 C 257.8709,640.17837 264.88625,642.83448 288.34323,646.56662 C 326.80851,652.68673 330.70733,655.90653 327.65795,679.03414 C 326.35072,688.94855 324.18221,720.66326 322.83902,749.51125 L 320.39686,801.96216 L 330.9246,806.75889 C 352.34752,816.51987 368.92173,802.09986 380.01503,764.04886 C 386.16207,742.9638 386.12653,742.68749 377.26534,742.68749 C 367.47407,742.68749 365.05872,735.5701 362.17949,698.233 L 359.79438,667.30352 L 377.24467,667.60538 C 386.84231,667.77137 400.83609,670.12612 408.34195,672.83818 C 422.833,678.0741 429.42013,687.14141 418.73283,687.14141 C 400.1183,687.14141 399.58502,755.05968 418.10246,767.42412 C 427.21602,773.50939 440.27939,770.24649 446.83027,760.24863 C 453.20938,750.51283 453.09786,749.17171 444.4377,731.48368 C 424.95535,691.69174 426.40315,680.87005 451.00599,682.38822 C 481.68378,684.28123 477.86113,676.59385 443.66168,667.61861 C 394.99671,654.84712 397.09006,656.1795 409.21258,645.69164 C 419.98658,636.37042 432.38695,615.90645 432.38695,607.4476 C 432.38695,604.15852 427.04293,603.47618 414.61956,605.17898 C 389.60576,608.60749 381.02625,615.10611 378.18737,632.77472 C 376.41791,643.78768 374.04334,647.50872 369.36049,646.60689 C 361.6771,645.12718 360.20737,626.80859 365.45601,597.94039 C 371.01808,567.34802 374.6098,565.43069 411.50414,573.35889 C 448.15203,581.23413 449.34953,581.30984 447.4571,575.63261 C 445.78129,570.60513 439.0202,567.96513 347.08402,536.44011 C 309.98718,523.71953 267.3711,508.68092 252.38167,503.02097 C 223.84555,492.24578 191.74628,489.58813 178.13337,496.87356 C 170.56664,500.92314 170.60288,501.30511 179.73329,513.73577 C 184.87143,520.73109 192.04461,532.9755 195.67371,540.94557 C 202.4314,555.7865 210.71199,603.38547 207.48567,608.84368 C 206.4981,610.5144 204.73273,623.01225 203.56253,636.61673 C 201.04571,665.87765 178.78603,736.04676 165.18633,757.5901 C 155.58189,772.80453 129.43325,798.23359 123.39274,798.23359 C 116.77057,798.23359 99.110412,770.85989 99.110412,760.59543 C 99.110412,747.89831 90.336339,755.4998 81.233261,776.08342 C 71.021663,799.17367 70.009857,824.87845 78.682453,840.88502 C 84.324152,851.29765 87.212752,851.51492 110.69931,843.29308 z M 262.20476,750.26287 C 275.06872,743.28389 315.25337,704.76955 315.40414,699.27474 C 315.43754,698.0568 316.95537,694.7098 318.77713,691.83692 C 324.15102,683.36221 319.44103,682.38332 294.902,686.87495 C 264.09003,692.51477 241.68163,708.30592 234.24297,729.62122 C 229.51004,743.18324 229.42295,747.08175 233.73686,752.27971 C 240.30464,760.19336 244.44045,759.9004 262.20476,750.26287 z M 310.497,590.92765 C 309.33787,581.65343 307.24006,572.77971 305.83522,571.20827 C 303.40877,568.49408 263.14857,577.32683 258.98958,581.48577 C 254.6596,585.81575 262.51427,591.08325 280.52489,595.92779 C 290.9464,598.731 301.16922,602.54673 303.24228,604.40722 C 310.66689,611.07041 312.57208,607.53046 310.497,590.92765 z M 388.74357,492.98141 C 385.47032,491.07014 367.61623,484.98936 349.06781,479.46852 C 330.51938,473.94768 304.63094,464.89564 291.53792,459.35286 C 267.21604,449.05647 252.48682,447.17641 230.53642,451.56649 C 212.27889,455.21802 215.42238,463.65725 236.98374,468.87568 C 247.34902,471.38435 270.113,476.79727 287.57035,480.90443 C 305.0277,485.01159 325.54813,490.24525 333.1713,492.53482 C 350.23328,497.65926 397.4042,498.03832 388.74357,492.98141 z M 411.55715,460.86585 C 422.86209,456.32184 422.76965,455.24407 409.57336,437.73932 C 384.21319,404.09926 367.59529,368.55954 369.896,352.88374 L 371.62467,341.10549 L 352.734,343.61147 C 342.34416,344.98972 328.20414,348.08324 321.31175,350.48592 C 310.40853,354.28682 309.10804,356.20792 311.30357,365.27053 C 314.3613,377.89199 337.59587,417.34613 341.97096,417.34613 C 343.69206,417.34613 345.10022,420.05825 345.10022,423.37309 C 345.10022,431.63636 332.45009,428.13837 285.11826,406.7871 C 245.03868,388.7073 221.77506,385.12127 208.33247,394.95072 C 195.09961,404.62684 203.45822,413.37856 225.93257,413.37856 C 236.90323,413.37856 256.15241,416.79167 268.70857,420.96329 C 281.26471,425.13489 306.52606,430.74957 324.84483,433.44042 C 344.83341,436.3765 360.75106,440.93211 364.65218,444.83323 C 370.405,450.58605 397.61881,465.36458 401.24594,464.70556 C 402.00722,464.56725 406.64727,462.83938 411.55715,460.86585 z"
           style="fill:#000000"
           id="path2456"
           sodipodi:nodetypes="cssssssscccssssscccsscccsssssssssssssssssssssssssssccsssssccssssccssssssccscccsssssssssssc" />
        <g
           id="g2458"
           transform="translate(34.070617,197.65982)"
           style="fill:#000000">
          <text
             id="text2460"
             y="391.45663"
             x="535.61224"
             style="font-size:430.75018311px;font-style:italic;font-variant:normal;font-weight:bold;font-stretch:normal;text-indent:0;text-align:center;text-decoration:none;line-height:normal;letter-spacing:normal;word-spacing:normal;text-transform:none;direction:ltr;block-progression:tb;writing-mode:lr-tb;text-anchor:middle;opacity:1;fill:#000000;fill-opacity:1;fill-rule:nonzero;stroke:none;stroke-width:1px;stroke-linecap:butt;stroke-linejoin:miter;marker:none;marker-start:none;marker-mid:none;marker-end:none;stroke-miterlimit:4;stroke-dasharray:none;stroke-dashoffset:0;stroke-opacity:1;visibility:visible;display:inline;overflow:visible;enable-background:accumulate;font-family:El Abogado Loco;-inkscape-font-specification:El Abogado Loco Bold Italic"
             xml:space="preserve"><tspan
               style="font-style:italic;font-variant:normal;font-weight:bold;font-stretch:normal;fill:#000000;font-family:El Abogado Loco;-inkscape-font-specification:El Abogado Loco Bold Italic"
               id="tspan2462"
               y="391.45663"
               x="535.61224"
               sodipodi:role="line">D</tspan></text>
          <text
             id="text2464"
             y="637.53516"
             x="533.19348"
             style="font-size:430.75018311px;font-style:italic;font-variant:normal;font-weight:bold;font-stretch:normal;text-indent:0;text-align:center;text-decoration:none;line-height:normal;letter-spacing:normal;word-spacing:normal;text-transform:none;direction:ltr;block-progression:tb;writing-mode:lr-tb;text-anchor:middle;opacity:1;fill:#000000;fill-opacity:1;fill-rule:nonzero;stroke:none;stroke-width:1px;stroke-linecap:butt;stroke-linejoin:miter;marker:none;marker-start:none;marker-mid:none;marker-end:none;stroke-miterlimit:4;stroke-dasharray:none;stroke-dashoffset:0;stroke-opacity:1;visibility:visible;display:inline;overflow:visible;enable-background:accumulate;font-family:El Abogado Loco;-inkscape-font-specification:El Abogado Loco Bold Italic"
             xml:space="preserve"><tspan
               style="font-style:italic;font-variant:normal;font-weight:bold;font-stretch:normal;fill:#000000;font-family:El Abogado Loco;-inkscape-font-specification:El Abogado Loco Bold Italic"
               id="tspan2466"
               y="637.53516"
               x="533.19348"
               sodipodi:role="line">O</tspan></text>
        </g>
      </g>
      <path
         sodipodi:nodetypes="cssssssscccssssscccsscccsssssssssssssssssssssssssssccsssssccssssccssssssccscccsssssssssssc"
         id="path3258"
         style="fill:#000000"
         d="M 395.09275,602.13418 C 409.85817,596.96528 436.96733,577.82708 436.96733,572.572 C 436.96733,571.6735 440.33343,565.18858 444.44754,558.16101 C 449.04363,550.31021 454.27623,536.07512 458.01874,521.24103 C 463.51071,499.4726 464.08782,493.59096 463.88699,461.43306 C 463.6947,430.64271 464.12757,425.76776 467.05371,425.76776 C 472.61129,425.76776 510.18387,434.57138 514.30382,436.83892 C 516.39993,437.99259 519.55151,438.93648 521.30734,438.93648 C 527.88424,438.93648 526.78551,443.1999 519.29224,446.75568 L 511.52897,450.43959 L 512.66714,462.79503 C 513.29314,469.59055 514.37302,477.86654 515.0669,481.18614 C 516.55951,488.3272 516.94888,488.27461 497.04406,483.61982 C 479.80327,479.58802 474.05204,480.39395 475.67856,486.61377 C 476.50525,489.77501 480.38601,491.24432 493.36196,493.30886 C 514.64022,496.69439 516.79697,498.47553 515.11011,511.26927 C 514.38698,516.75373 513.1874,534.29771 512.44437,550.25586 L 511.09342,579.2707 L 516.91716,581.92416 C 528.76791,587.32375 537.93644,579.34688 544.07304,558.29779 C 547.47347,546.63394 547.45381,546.48109 542.55197,546.48109 C 537.13563,546.48109 535.7995,542.54388 534.20677,521.88972 L 532.88737,504.78012 L 542.54053,504.94711 C 547.84977,505.03893 555.59085,506.34153 559.74295,507.84179 C 567.75912,510.7382 571.40299,515.75406 565.49099,515.75406 C 555.19378,515.75406 554.89879,553.32515 565.14228,560.16492 C 570.18373,563.53117 577.41013,561.7262 581.03396,556.19558 C 584.56276,550.80992 584.50106,550.06804 579.71043,540.28336 C 568.93316,518.27122 569.73406,512.28487 583.34388,513.12469 C 600.31425,514.17187 598.19963,509.91936 579.28115,504.95442 C 552.36062,497.88948 553.51863,498.62652 560.22457,492.82485 C 566.18454,487.66853 573.04418,476.34825 573.04418,471.66898 C 573.04418,469.84952 570.08798,469.47206 563.2156,470.41401 C 549.37845,472.3106 544.63243,475.90551 543.06202,485.67945 C 542.08319,491.77161 540.76962,493.83002 538.17916,493.33114 C 533.92885,492.51259 533.11583,482.3791 536.01927,466.40976 C 539.0961,449.48666 541.08297,448.42603 561.49222,452.81176 C 581.76512,457.16819 582.42756,457.21007 581.38071,454.06953 C 580.45368,451.28842 576.71357,449.82803 525.85624,432.38899 C 505.33498,425.35221 481.76058,417.03314 473.46872,413.90217 C 457.68308,407.94154 439.92638,406.47137 432.39598,410.50153 C 428.21021,412.74169 428.23026,412.95298 433.28102,419.82939 C 436.12334,423.69906 440.09141,430.47244 442.09895,434.88133 C 445.83718,443.09104 450.41785,469.42188 448.6331,472.44126 C 448.0868,473.36547 447.11023,480.27904 446.4629,487.80478 C 445.07064,503.99136 432.75702,542.80756 425.23392,554.72493 C 419.92093,563.14126 405.45601,577.20813 402.11451,577.20813 C 398.45125,577.20813 388.682,562.06553 388.682,556.38742 C 388.682,549.36361 383.82834,553.56861 378.79269,564.95508 C 373.14383,577.72816 372.58413,591.94755 377.38164,600.80208 C 380.50252,606.56215 382.10043,606.68234 395.09275,602.13418 z M 478.90266,550.67165 C 486.01875,546.81101 508.24813,525.50561 508.33154,522.46599 C 508.35002,521.79225 509.18964,519.94075 510.19741,518.35153 C 513.17014,513.66348 510.56467,513.12198 496.99015,515.60666 C 479.94555,518.7265 467.54966,527.46186 463.43473,539.25308 C 460.81657,546.75533 460.76839,548.91191 463.15476,551.78733 C 466.78793,556.165 469.07578,556.00295 478.90266,550.67165 z M 505.617,462.53045 C 504.97579,457.40013 503.81533,452.49136 503.03819,451.62207 C 501.69593,450.12063 479.42476,455.00674 477.12409,457.30739 C 474.72882,459.70265 479.07387,462.61653 489.03701,465.29643 C 494.80198,466.84712 500.45706,468.95791 501.60383,469.9871 C 505.71099,473.67304 506.76489,471.71481 505.617,462.53045 z M 548.9015,408.34847 C 547.09081,407.2912 537.21426,403.92742 526.95363,400.8734 C 516.693,397.81938 502.37201,392.81197 495.1292,389.74581 C 481.67481,384.05003 473.52688,383.01002 461.38434,385.43853 C 451.28463,387.45849 453.02354,392.12691 464.95088,395.01365 C 470.68475,396.40139 483.27735,399.39572 492.93442,401.66772 C 502.59149,403.93972 513.943,406.83488 518.15999,408.10143 C 527.59835,410.93617 553.6924,411.14586 548.9015,408.34847 z M 561.52154,390.58276 C 567.77521,388.0691 567.72408,387.4729 560.42414,377.78961 C 546.39539,359.18057 537.20268,339.52068 538.47539,330.84912 L 539.43166,324.33362 L 528.98171,325.71988 C 523.23424,326.48231 515.41225,328.19358 511.59951,329.5227 C 505.56806,331.62528 504.84865,332.688 506.06318,337.70126 C 507.75466,344.68321 520.60758,366.50848 523.0278,366.50848 C 523.97988,366.50848 524.75884,368.00878 524.75884,369.84248 C 524.75884,374.41357 517.76103,372.47855 491.57797,360.66744 C 469.40671,350.66603 456.53772,348.68231 449.10154,354.11978 C 441.78138,359.47242 446.4052,364.3137 458.83758,364.3137 C 464.90634,364.3137 475.55461,366.20177 482.50044,368.50943 C 489.44626,370.81708 503.42036,373.92301 513.55395,375.41154 C 524.61125,377.03572 533.41659,379.5558 535.57461,381.71382 C 538.75696,384.89617 553.81112,393.07137 555.81757,392.70682 C 556.2387,392.63031 558.80549,391.67448 561.52154,390.58276 z" />
      <g
         transform="matrix(0.9949579,0,0,0.9949579,-7.5125611,-2.6982715)"
         id="g3322">
        <path
           d="M 742.74675,257.47584 C 755.61177,252.97221 779.23184,236.2972 779.23184,231.71848 C 779.23184,230.93562 782.1647,225.28534 785.74931,219.16227 C 789.75386,212.32191 794.313,199.91894 797.57382,186.99409 C 802.35894,168.02737 802.86177,162.90273 802.68679,134.88373 C 802.51926,108.05627 802.8964,103.80875 805.44594,103.80875 C 810.28823,103.80875 843.02501,111.4793 846.6147,113.455 C 848.44102,114.46018 851.18698,115.28259 852.71682,115.28259 C 858.44725,115.28259 857.48993,118.99728 850.96108,122.09541 L 844.19699,125.30518 L 845.18867,136.07042 C 845.73409,141.99131 846.67499,149.20213 847.27956,152.09449 C 848.58007,158.31645 848.91933,158.27063 831.57636,154.21493 C 816.55455,150.70205 811.54355,151.40425 812.96072,156.82355 C 813.68101,159.57792 817.0623,160.85812 828.36817,162.65695 C 846.9078,165.60674 848.78696,167.15863 847.31721,178.30575 C 846.68715,183.08433 845.64196,198.3703 844.99457,212.27455 L 843.81749,237.55502 L 848.89168,239.86696 C 859.21718,244.57159 867.20567,237.62139 872.55246,219.28144 C 875.51523,209.11879 875.4981,208.98561 871.22715,208.98561 C 866.50792,208.98561 865.34376,205.55515 863.95602,187.55929 L 862.80644,172.65179 L 871.21719,172.79728 C 875.84309,172.87729 882.58786,174.01224 886.20556,175.3194 C 893.19001,177.84303 896.36489,182.21332 891.21379,182.21332 C 882.2419,182.21332 881.98487,214.9488 890.90997,220.90826 C 895.30255,223.84126 901.59888,222.26859 904.75629,217.44979 C 907.83092,212.7573 907.77717,212.1109 903.60311,203.58556 C 894.21294,184.40651 894.91076,179.19063 906.76892,179.92236 C 921.55511,180.83476 919.71265,177.12957 903.22908,172.80366 C 879.77338,166.64801 880.78234,167.2902 886.62519,162.23522 C 891.81808,157.74255 897.79485,147.87925 897.79485,143.80223 C 897.79485,142.21695 895.21912,141.88807 889.23127,142.70879 C 877.17503,144.36128 873.03985,147.4935 871.67155,156.00948 C 870.8187,161.31754 869.6742,163.11102 867.41714,162.67636 C 863.71388,161.96316 863.00549,153.13391 865.53525,139.21991 C 868.21608,124.4749 869.94723,123.55078 887.72968,127.37204 C 905.39336,131.16777 905.97053,131.20426 905.05841,128.46793 C 904.2507,126.04477 900.99197,124.77233 856.68026,109.5778 C 838.80019,103.44669 818.25995,96.198329 811.0353,93.470327 C 797.28136,88.276865 781.81004,86.995921 775.24885,90.507378 C 771.60181,92.459208 771.61928,92.643311 776.01998,98.634683 C 778.49648,102.00631 781.95383,107.90791 783.703,111.74936 C 786.96009,118.90244 790.9512,141.84435 789.39617,144.47512 C 788.92018,145.28038 788.0693,151.30413 787.50528,157.86127 C 786.29221,171.96454 775.56342,205.78489 769.00859,216.16842 C 764.37941,223.50152 751.7762,235.75791 748.86477,235.75791 C 745.673,235.75791 737.16109,222.56424 737.16109,217.61694 C 737.16109,211.49714 732.93214,215.16093 728.5446,225.0819 C 723.62278,236.21101 723.13511,248.60029 727.31516,256.31519 C 730.03436,261.33391 731.42662,261.43863 742.74675,257.47584 z M 815.76986,212.63682 C 821.97008,209.27307 841.33841,190.70979 841.41108,188.06139 C 841.42718,187.47436 842.15875,185.86116 843.0368,184.47648 C 845.62693,180.39181 843.35679,179.92 831.52939,182.08489 C 816.67853,184.80319 805.87805,192.41427 802.29274,202.68789 C 800.01155,209.22455 799.96957,211.10357 802.04881,213.6089 C 805.21437,217.42315 807.20776,217.28195 815.76986,212.63682 z M 839.04592,135.83989 C 838.48724,131.36987 837.47613,127.09288 836.79902,126.33547 C 835.62951,125.02728 816.22476,129.28452 814.2202,131.28906 C 812.13322,133.37604 815.91904,135.91488 824.59986,138.24987 C 829.62286,139.60097 834.55008,141.44009 835.54927,142.33682 C 839.1278,145.54836 840.04607,143.84217 839.04592,135.83989 z M 876.75947,88.631426 C 875.18182,87.710226 866.57644,84.779391 857.63641,82.118437 C 848.69637,79.457484 836.21858,75.094551 829.90796,72.423023 C 818.18522,67.460334 811.08598,66.554176 800.50625,68.670122 C 791.70642,70.430099 793.22153,74.497668 803.61375,77.012864 C 808.60964,78.222002 819.5815,80.830939 827.99566,82.810522 C 836.40981,84.790105 846.30031,87.312642 849.97456,88.416177 C 858.19815,90.886072 880.93375,91.068773 876.75947,88.631426 z M 887.75523,73.152259 C 893.20403,70.962122 893.15947,70.442655 886.79908,62.005656 C 874.5759,45.791705 866.56635,28.66215 867.67525,21.106675 L 868.50844,15.429754 L 859.40345,16.637595 C 854.39572,17.301888 847.58047,18.792913 844.25845,19.950965 C 839.00328,21.782936 838.37646,22.708874 839.43467,27.076902 C 840.90845,33.160236 852.10713,52.176477 854.21585,52.176477 C 855.04539,52.176477 855.7241,53.483674 855.7241,55.081371 C 855.7241,59.06413 849.62694,57.378157 826.81379,47.0872 C 807.4961,38.373036 796.28342,36.644629 789.80431,41.382261 C 783.42629,46.04599 787.455,50.264174 798.28727,50.264174 C 803.57494,50.264174 812.85273,51.909236 818.90459,53.919888 C 824.95644,55.93053 837.13199,58.636712 845.96134,59.933657 C 855.5955,61.348799 863.26754,63.544528 865.14782,65.424803 C 867.92058,68.197566 881.03719,75.320573 882.7854,75.002936 C 883.15233,74.936273 885.38875,74.103468 887.75523,73.152259 z"
           style="fill:#000000"
           id="path3303"
           sodipodi:nodetypes="cssssssscccssssscccsscccsssssssssssssssssssssssssssccsssssccssssccssssssccscccsssssssssssc" />
        <g
           id="g3305"
           transform="matrix(0.4819834,0,0,0.4819834,705.81299,-53.708678)"
           style="fill:#000000">
          <text
             id="text3307"
             y="391.45663"
             x="535.61224"
             style="font-size:430.75018311px;font-style:italic;font-variant:normal;font-weight:bold;font-stretch:normal;text-indent:0;text-align:center;text-decoration:none;line-height:normal;letter-spacing:normal;word-spacing:normal;text-transform:none;direction:ltr;block-progression:tb;writing-mode:lr-tb;text-anchor:middle;opacity:1;fill:#000000;fill-opacity:1;fill-rule:nonzero;stroke:none;stroke-width:1px;stroke-linecap:butt;stroke-linejoin:miter;marker:none;marker-start:none;marker-mid:none;marker-end:none;stroke-miterlimit:4;stroke-dasharray:none;stroke-dashoffset:0;stroke-opacity:1;visibility:visible;display:inline;overflow:visible;enable-background:accumulate;font-family:El Abogado Loco;-inkscape-font-specification:El Abogado Loco Bold Italic"
             xml:space="preserve"><tspan
               style="font-style:italic;font-variant:normal;font-weight:bold;font-stretch:normal;fill:#000000;font-family:El Abogado Loco;-inkscape-font-specification:El Abogado Loco Bold Italic"
               id="tspan3309"
               y="391.45663"
               x="535.61224"
               sodipodi:role="line">D</tspan></text>
          <text
             id="text3311"
             y="637.53516"
             x="533.19348"
             style="font-size:430.75018311px;font-style:italic;font-variant:normal;font-weight:bold;font-stretch:normal;text-indent:0;text-align:center;text-decoration:none;line-height:normal;letter-spacing:normal;word-spacing:normal;text-transform:none;direction:ltr;block-progression:tb;writing-mode:lr-tb;text-anchor:middle;opacity:1;fill:#000000;fill-opacity:1;fill-rule:nonzero;stroke:none;stroke-width:1px;stroke-linecap:butt;stroke-linejoin:miter;marker:none;marker-start:none;marker-mid:none;marker-end:none;stroke-miterlimit:4;stroke-dasharray:none;stroke-dashoffset:0;stroke-opacity:1;visibility:visible;display:inline;overflow:visible;enable-background:accumulate;font-family:El Abogado Loco;-inkscape-font-specification:El Abogado Loco Bold Italic"
             xml:space="preserve"><tspan
               style="font-style:italic;font-variant:normal;font-weight:bold;font-stretch:normal;fill:#000000;font-family:El Abogado Loco;-inkscape-font-specification:El Abogado Loco Bold Italic"
               id="tspan3313"
               y="637.53516"
               x="533.19348"
               sodipodi:role="line">O</tspan></text>
        </g>
      </g>
      <rect
         ry="5.3397255"
         y="326.18066"
         x="244.01811"
         height="277.3252"
         width="53.104473"
         id="rect3376"
         style="fill:#ffffff;fill-opacity:1;stroke:#000000;stroke-width:5.56029081;stroke-miterlimit:4;stroke-dasharray:none;stroke-opacity:1" />
      <path
         sodipodi:nodetypes="cssssssscccssssscccsscccsssssssssssssssssssssssssssccsssssccssssccssssssccscccsssssssssssc"
         id="path3378"
         style="fill:#000000"
         d="M 41.533709,602.13416 C 56.299125,596.96529 83.408285,577.82706 83.408285,572.57201 C 83.408285,571.67347 86.774385,565.18859 90.888508,558.16104 C 95.484599,550.31019 100.7172,536.07512 104.4597,521.24103 C 109.95167,499.47259 110.52878,493.59095 110.32795,461.43306 C 110.13566,430.64271 110.56853,425.76776 113.49467,425.76776 C 119.05225,425.76776 156.62484,434.57138 160.74478,436.83892 C 162.84089,437.99259 165.99247,438.93648 167.7483,438.93648 C 174.32521,438.93648 173.22647,443.1999 165.73321,446.75568 L 157.96993,450.43959 L 159.1081,462.79503 C 159.7341,469.59055 160.81398,477.86651 161.50786,481.18614 C 163.00047,488.32722 163.38984,488.27461 143.48502,483.61981 C 126.24423,479.588 120.493,480.39394 122.11953,486.61379 C 122.94621,489.775 126.82697,491.2443 139.80292,493.30888 C 161.08118,496.69441 163.23793,498.47553 161.55107,511.26928 C 160.82794,516.75373 159.62836,534.2977 158.88533,550.25586 L 157.53438,579.27069 L 163.35812,581.92414 C 175.20887,587.32374 184.3774,579.34687 190.514,558.29778 C 193.91443,546.63391 193.89477,546.48107 188.99293,546.48107 C 183.57659,546.48107 182.24046,542.54386 180.64773,521.88969 L 179.32833,504.78014 L 188.98149,504.94709 C 194.29072,505.03891 202.03182,506.34155 206.18391,507.84178 C 214.20008,510.73817 217.84396,515.75408 211.93195,515.75408 C 201.63475,515.75408 201.33975,553.32513 211.58324,560.16494 C 216.62469,563.53115 223.85109,561.72618 227.47491,556.19558 C 231.00372,550.80993 230.94203,550.06806 226.15139,540.28334 C 215.37413,518.27122 216.17502,512.28487 229.78484,513.12471 C 246.75522,514.17188 244.64058,509.91936 225.72211,504.95444 C 198.80158,497.8895 199.95958,498.6265 206.66553,492.82485 C 212.6255,487.66854 219.48515,476.34825 219.48515,471.66898 C 219.48515,469.84952 216.52894,469.47206 209.65657,470.41401 C 195.81941,472.3106 191.07339,475.90554 189.50298,485.67947 C 188.52415,491.7716 187.21058,493.83003 184.62012,493.33112 C 180.36981,492.51258 179.55679,482.37908 182.46023,466.40976 C 185.53706,449.48666 187.52393,448.42603 207.93318,452.81176 C 228.20608,457.16819 228.86852,457.21007 227.82167,454.06953 C 226.89464,451.28842 223.15453,449.82803 172.2972,432.38899 C 151.77594,425.35221 128.20154,417.03314 119.90968,413.90217 C 104.12404,407.94154 86.367339,406.47137 78.836936,410.50153 C 74.651167,412.74169 74.671217,412.95298 79.721989,419.82939 C 82.564308,423.69906 86.53237,430.47244 88.539922,434.88133 C 92.278143,443.09104 96.858809,469.42188 95.074073,472.44126 C 94.527769,473.36547 93.551198,480.27904 92.903863,487.80479 C 91.511609,503.99136 79.197978,542.80756 71.674887,554.7249 C 66.361893,563.14127 51.896966,577.20811 48.555469,577.20811 C 44.892211,577.20811 35.122957,562.0655 35.122957,556.38743 C 35.122957,549.36364 30.269302,553.56859 25.233653,564.95509 C 19.584801,577.72815 19.025086,591.94755 23.8226,600.8021 C 26.943484,606.56215 28.541402,606.68236 41.533709,602.13416 z M 125.34362,550.67164 C 132.45972,546.81098 154.6891,525.50561 154.7725,522.466 C 154.79097,521.79222 155.63061,519.94072 156.63837,518.35155 C 159.61111,513.6635 157.00563,513.122 143.4311,515.60666 C 126.38651,518.72649 113.99062,527.46188 109.87569,539.2531 C 107.25753,546.75534 107.20935,548.91191 109.59572,551.78734 C 113.2289,556.165 115.51674,556.00291 125.34362,550.67164 z M 152.05796,462.53045 C 151.41675,457.40013 150.25629,452.49136 149.47916,451.62207 C 148.13689,450.12063 125.86572,455.00674 123.56505,457.30739 C 121.16979,459.70265 125.51484,462.61653 135.47797,465.29643 C 141.24295,466.84712 146.89802,468.95791 148.04479,469.9871 C 152.15194,473.67304 153.20586,471.71481 152.05796,462.53045 z M 195.34247,408.34847 C 193.53177,407.2912 183.65523,403.92742 173.3946,400.8734 C 163.13396,397.81938 148.81297,392.81197 141.57016,389.74581 C 128.11577,384.05003 119.96785,383.01002 107.8253,385.43853 C 97.725588,387.45849 99.464508,392.12691 111.39184,395.01365 C 117.12571,396.40139 129.71831,399.39572 139.37538,401.66772 C 149.03245,403.93972 160.38396,406.83488 164.60095,408.10143 C 174.03931,410.93617 200.13336,411.14586 195.34247,408.34847 z M 207.9625,390.58276 C 214.21618,388.0691 214.16504,387.4729 206.86511,377.78961 C 192.83635,359.18057 183.64364,339.52068 184.91635,330.84912 L 185.87262,324.33362 L 175.42266,325.71988 C 169.6752,326.48231 161.85321,328.19358 158.04048,329.5227 C 152.00902,331.62528 151.28962,332.688 152.50414,337.70126 C 154.19562,344.68321 167.04854,366.50848 169.46875,366.50848 C 170.42083,366.50848 171.1998,368.00878 171.1998,369.84248 C 171.1998,374.41357 164.20199,372.47855 138.01893,360.66744 C 115.84767,350.66603 102.97868,348.68231 95.5425,354.11978 C 88.222338,359.47242 92.846159,364.3137 105.27854,364.3137 C 111.3473,364.3137 121.99558,366.20177 128.9414,368.50943 C 135.88722,370.81708 149.86131,373.92301 159.99491,375.41154 C 171.05221,377.03572 179.85755,379.5558 182.01557,381.71382 C 185.19792,384.89617 200.25208,393.07137 202.25854,392.70682 C 202.67966,392.63031 205.24645,391.67448 207.9625,390.58276 z" />
      <g
         transform="matrix(0.6246029,0,0,0.6246029,381.755,49.620498)"
         id="g3468">
        <text
           xml:space="preserve"
           style="font-size:139.84580994px;font-style:italic;font-variant:normal;font-weight:bold;font-stretch:normal;text-indent:0;text-align:center;text-decoration:none;line-height:normal;letter-spacing:normal;word-spacing:normal;text-transform:none;direction:ltr;block-progression:tb;writing-mode:lr-tb;text-anchor:middle;fill:#000000;fill-opacity:1;fill-rule:nonzero;stroke:none;stroke-width:1px;stroke-linecap:butt;stroke-linejoin:miter;marker:none;marker-start:none;marker-mid:none;marker-end:none;stroke-miterlimit:4;stroke-dasharray:none;stroke-dashoffset:0;stroke-opacity:1;visibility:visible;display:inline;overflow:visible;enable-background:accumulate;font-family:El Abogado Loco;-inkscape-font-specification:El Abogado Loco Bold Italic"
           x="-183.90953"
           y="787.24622"
           id="text3382"><tspan
             sodipodi:role="line"
             x="-183.90953"
             y="787.24622"
             id="tspan3384"
             style="font-style:italic;font-variant:normal;font-weight:bold;font-stretch:normal;fill:#000000;font-family:El Abogado Loco;-inkscape-font-specification:El Abogado Loco Bold Italic">D</tspan></text>
        <text
           xml:space="preserve"
           style="font-size:139.84580994px;font-style:italic;font-variant:normal;font-weight:bold;font-stretch:normal;text-indent:0;text-align:center;text-decoration:none;line-height:normal;letter-spacing:normal;word-spacing:normal;text-transform:none;direction:ltr;block-progression:tb;writing-mode:lr-tb;text-anchor:middle;fill:#000000;fill-opacity:1;fill-rule:nonzero;stroke:none;stroke-width:1px;stroke-linecap:butt;stroke-linejoin:miter;marker:none;marker-start:none;marker-mid:none;marker-end:none;stroke-miterlimit:4;stroke-dasharray:none;stroke-dashoffset:0;stroke-opacity:1;visibility:visible;display:inline;overflow:visible;enable-background:accumulate;font-family:El Abogado Loco;-inkscape-font-specification:El Abogado Loco Bold Italic"
           x="-184.69479"
           y="870.92627"
           id="text3386"><tspan
             sodipodi:role="line"
             x="-184.69479"
             y="870.92627"
             id="tspan3388"
             style="font-style:italic;font-variant:normal;font-weight:bold;font-stretch:normal;fill:#000000;font-family:El Abogado Loco;-inkscape-font-specification:El Abogado Loco Bold Italic">O</tspan></text>
        <text
           xml:space="preserve"
           style="font-size:139.84580994px;font-style:italic;font-variant:normal;font-weight:bold;font-stretch:normal;text-indent:0;text-align:center;text-decoration:none;line-height:normal;letter-spacing:normal;word-spacing:normal;text-transform:none;direction:ltr;block-progression:tb;writing-mode:lr-tb;text-anchor:middle;fill:#000000;fill-opacity:1;fill-rule:nonzero;stroke:none;stroke-width:1px;stroke-linecap:butt;stroke-linejoin:miter;marker:none;marker-start:none;marker-mid:none;marker-end:none;stroke-miterlimit:4;stroke-dasharray:none;stroke-dashoffset:0;stroke-opacity:1;visibility:visible;display:inline;overflow:visible;enable-background:accumulate;font-family:El Abogado Loco;-inkscape-font-specification:El Abogado Loco Bold Italic"
           x="-181.14403"
           y="613.87708"
           id="text3390"><tspan
             sodipodi:role="line"
             x="-181.14403"
             y="613.87708"
             id="tspan3392"
             style="font-style:italic;font-variant:normal;font-weight:bold;font-stretch:normal;fill:#000000;font-family:El Abogado Loco;-inkscape-font-specification:El Abogado Loco Bold Italic">k</tspan></text>
        <text
           xml:space="preserve"
           style="font-size:139.84580994px;font-style:italic;font-variant:normal;font-weight:bold;font-stretch:normal;text-indent:0;text-align:center;text-decoration:none;line-height:normal;letter-spacing:normal;word-spacing:normal;text-transform:none;direction:ltr;block-progression:tb;writing-mode:lr-tb;text-anchor:middle;fill:#000000;fill-opacity:1;fill-rule:nonzero;stroke:none;stroke-width:1px;stroke-linecap:butt;stroke-linejoin:miter;marker:none;marker-start:none;marker-mid:none;marker-end:none;stroke-miterlimit:4;stroke-dasharray:none;stroke-dashoffset:0;stroke-opacity:1;visibility:visible;display:inline;overflow:visible;enable-background:accumulate;font-family:El Abogado Loco;-inkscape-font-specification:El Abogado Loco Bold Italic"
           x="-184.62651"
           y="528.62653"
           id="text3394"><tspan
             sodipodi:role="line"
             x="-184.62651"
             y="528.62653"
             id="tspan3396"
             style="font-style:italic;font-variant:normal;font-weight:bold;font-stretch:normal;fill:#000000;font-family:El Abogado Loco;-inkscape-font-specification:El Abogado Loco Bold Italic">I</tspan></text>
        <text
           xml:space="preserve"
           style="font-size:139.84580994px;font-style:italic;font-variant:normal;font-weight:bold;font-stretch:normal;text-indent:0;text-align:center;text-decoration:none;line-height:normal;letter-spacing:normal;word-spacing:normal;text-transform:none;direction:ltr;block-progression:tb;writing-mode:lr-tb;text-anchor:middle;fill:#000000;fill-opacity:1;fill-rule:nonzero;stroke:none;stroke-width:1px;stroke-linecap:butt;stroke-linejoin:miter;marker:none;marker-start:none;marker-mid:none;marker-end:none;stroke-miterlimit:4;stroke-dasharray:none;stroke-dashoffset:0;stroke-opacity:1;visibility:visible;display:inline;overflow:visible;enable-background:accumulate;font-family:El Abogado Loco;-inkscape-font-specification:El Abogado Loco Bold Italic"
           x="-187.80173"
           y="703.22473"
           id="text3464"><tspan
             sodipodi:role="line"
             x="-187.80173"
             y="703.22473"
             id="tspan3466"
             style="font-style:italic;font-variant:normal;font-weight:bold;font-stretch:normal;fill:#000000;font-family:El Abogado Loco;-inkscape-font-specification:El Abogado Loco Bold Italic">i</tspan></text>
      </g>
      <g
         transform="matrix(0.6770069,0,0,0.6770069,737.96065,17.20912)"
         id="g3480">
        <text
           xml:space="preserve"
           style="font-size:139.84580994px;font-style:italic;font-variant:normal;font-weight:bold;font-stretch:normal;text-indent:0;text-align:center;text-decoration:none;line-height:normal;letter-spacing:normal;word-spacing:normal;text-transform:none;direction:ltr;block-progression:tb;writing-mode:lr-tb;text-anchor:middle;fill:#000000;fill-opacity:1;fill-rule:nonzero;stroke:none;stroke-width:1px;stroke-linecap:butt;stroke-linejoin:miter;marker:none;marker-start:none;marker-mid:none;marker-end:none;stroke-miterlimit:4;stroke-dasharray:none;stroke-dashoffset:0;stroke-opacity:1;visibility:visible;display:inline;overflow:visible;enable-background:accumulate;font-family:El Abogado Loco;-inkscape-font-specification:El Abogado Loco Bold Italic"
           x="-183.90953"
           y="787.24622"
           id="text3482"><tspan
             sodipodi:role="line"
             x="-183.90953"
             y="787.24622"
             id="tspan3484"
             style="font-style:italic;font-variant:normal;font-weight:bold;font-stretch:normal;fill:#000000;font-family:El Abogado Loco;-inkscape-font-specification:El Abogado Loco Bold Italic">D</tspan></text>
        <text
           xml:space="preserve"
           style="font-size:139.84580994px;font-style:italic;font-variant:normal;font-weight:bold;font-stretch:normal;text-indent:0;text-align:center;text-decoration:none;line-height:normal;letter-spacing:normal;word-spacing:normal;text-transform:none;direction:ltr;block-progression:tb;writing-mode:lr-tb;text-anchor:middle;fill:#000000;fill-opacity:1;fill-rule:nonzero;stroke:none;stroke-width:1px;stroke-linecap:butt;stroke-linejoin:miter;marker:none;marker-start:none;marker-mid:none;marker-end:none;stroke-miterlimit:4;stroke-dasharray:none;stroke-dashoffset:0;stroke-opacity:1;visibility:visible;display:inline;overflow:visible;enable-background:accumulate;font-family:El Abogado Loco;-inkscape-font-specification:El Abogado Loco Bold Italic"
           x="-184.69479"
           y="870.92627"
           id="text3486"><tspan
             sodipodi:role="line"
             x="-184.69479"
             y="870.92627"
             id="tspan3488"
             style="font-style:italic;font-variant:normal;font-weight:bold;font-stretch:normal;fill:#000000;font-family:El Abogado Loco;-inkscape-font-specification:El Abogado Loco Bold Italic">O</tspan></text>
        <text
           xml:space="preserve"
           style="font-size:139.84580994px;font-style:italic;font-variant:normal;font-weight:bold;font-stretch:normal;text-indent:0;text-align:center;text-decoration:none;line-height:normal;letter-spacing:normal;word-spacing:normal;text-transform:none;direction:ltr;block-progression:tb;writing-mode:lr-tb;text-anchor:middle;fill:#000000;fill-opacity:1;fill-rule:nonzero;stroke:none;stroke-width:1px;stroke-linecap:butt;stroke-linejoin:miter;marker:none;marker-start:none;marker-mid:none;marker-end:none;stroke-miterlimit:4;stroke-dasharray:none;stroke-dashoffset:0;stroke-opacity:1;visibility:visible;display:inline;overflow:visible;enable-background:accumulate;font-family:El Abogado Loco;-inkscape-font-specification:El Abogado Loco Bold Italic"
           x="-181.14403"
           y="613.87708"
           id="text3490"><tspan
             sodipodi:role="line"
             x="-181.14403"
             y="613.87708"
             id="tspan3492"
             style="font-style:italic;font-variant:normal;font-weight:bold;font-stretch:normal;fill:#000000;font-family:El Abogado Loco;-inkscape-font-specification:El Abogado Loco Bold Italic">k</tspan></text>
        <text
           xml:space="preserve"
           style="font-size:139.84580994px;font-style:italic;font-variant:normal;font-weight:bold;font-stretch:normal;text-indent:0;text-align:center;text-decoration:none;line-height:normal;letter-spacing:normal;word-spacing:normal;text-transform:none;direction:ltr;block-progression:tb;writing-mode:lr-tb;text-anchor:middle;fill:#000000;fill-opacity:1;fill-rule:nonzero;stroke:none;stroke-width:1px;stroke-linecap:butt;stroke-linejoin:miter;marker:none;marker-start:none;marker-mid:none;marker-end:none;stroke-miterlimit:4;stroke-dasharray:none;stroke-dashoffset:0;stroke-opacity:1;visibility:visible;display:inline;overflow:visible;enable-background:accumulate;font-family:El Abogado Loco;-inkscape-font-specification:El Abogado Loco Bold Italic"
           x="-184.62651"
           y="528.62653"
           id="text3494"><tspan
             sodipodi:role="line"
             x="-184.62651"
             y="528.62653"
             id="tspan3496"
             style="font-style:italic;font-variant:normal;font-weight:bold;font-stretch:normal;fill:#000000;font-family:El Abogado Loco;-inkscape-font-specification:El Abogado Loco Bold Italic">I</tspan></text>
        <text
           xml:space="preserve"
           style="font-size:139.84580994px;font-style:italic;font-variant:normal;font-weight:bold;font-stretch:normal;text-indent:0;text-align:center;text-decoration:none;line-height:normal;letter-spacing:normal;word-spacing:normal;text-transform:none;direction:ltr;block-progression:tb;writing-mode:lr-tb;text-anchor:middle;fill:#000000;fill-opacity:1;fill-rule:nonzero;stroke:none;stroke-width:1px;stroke-linecap:butt;stroke-linejoin:miter;marker:none;marker-start:none;marker-mid:none;marker-end:none;stroke-miterlimit:4;stroke-dasharray:none;stroke-dashoffset:0;stroke-opacity:1;visibility:visible;display:inline;overflow:visible;enable-background:accumulate;font-family:El Abogado Loco;-inkscape-font-specification:El Abogado Loco Bold Italic"
           x="-187.80173"
           y="703.22473"
           id="text3498"><tspan
             sodipodi:role="line"
             x="-187.80173"
             y="703.22473"
             id="tspan3500"
             style="font-style:italic;font-variant:normal;font-weight:bold;font-stretch:normal;fill:#000000;font-family:El Abogado Loco;-inkscape-font-specification:El Abogado Loco Bold Italic">i</tspan></text>
      </g>
      <g
         id="g2527">
        <rect
           style="fill:#000000;fill-opacity:1;stroke:#000000;stroke-width:5.2311821;stroke-miterlimit:4;stroke-dasharray:none;stroke-opacity:1"
           id="rect3364"
           width="46.948383"
           height="277.6543"
           x="931.40326"
           y="326.01611"
           ry="5.3460627" />
        <path
           d="M 729.0834,602.13417 C 743.84881,596.96527 770.95798,577.82707 770.95798,572.57199 C 770.95798,571.67349 774.32407,565.18857 778.4382,558.16101 C 783.03429,550.31021 788.26689,536.07511 792.00939,521.24103 C 797.50137,499.47259 798.07846,493.59095 797.87765,461.43306 C 797.68536,430.6427 798.11821,425.76775 801.04436,425.76775 C 806.60195,425.76775 844.17452,434.57137 848.29448,436.83892 C 850.39058,437.99259 853.54216,438.93648 855.29799,438.93648 C 861.8749,438.93648 860.77617,443.19989 853.2829,446.75568 L 845.51963,450.43958 L 846.65779,462.79503 C 847.28379,469.59054 848.36367,477.86653 849.05755,481.18614 C 850.55016,488.3272 850.93954,488.27461 831.03471,483.61981 C 813.79392,479.58801 808.0427,480.39394 809.66922,486.61376 C 810.4959,489.77501 814.37666,491.24431 827.35261,493.30886 C 848.63087,496.69439 850.78762,498.47552 849.10076,511.26927 C 848.37763,516.75373 847.17805,534.2977 846.43502,550.25585 L 845.08406,579.27069 L 850.90781,581.92416 C 862.75856,587.32374 871.9271,579.34687 878.0637,558.29778 C 881.46412,546.63393 881.44446,546.48109 876.54262,546.48109 C 871.12627,546.48109 869.79015,542.54388 868.19742,521.88971 L 866.87802,504.78011 L 876.53119,504.9471 C 881.84041,505.03892 889.58151,506.34153 893.7336,507.84179 C 901.74977,510.7382 905.39365,515.75406 899.48164,515.75406 C 889.18444,515.75406 888.88944,553.32514 899.13293,560.16491 C 904.17438,563.53117 911.40079,561.7262 915.02461,556.19557 C 918.5534,550.80991 918.49171,550.06803 913.70108,540.28335 C 902.92382,518.27121 903.72472,512.28487 917.33453,513.12468 C 934.30491,514.17186 932.19026,509.91935 913.2718,504.95442 C 886.35128,497.88947 887.50928,498.62652 894.21522,492.82484 C 900.17519,487.66852 907.03484,476.34824 907.03484,471.66897 C 907.03484,469.84951 904.07863,469.47206 897.20626,470.41401 C 883.3691,472.3106 878.62308,475.90551 877.05267,485.67944 C 876.07384,491.7716 874.76027,493.83002 872.16981,493.33114 C 867.91951,492.51259 867.10648,482.3791 870.00992,466.40976 C 873.08676,449.48665 875.07362,448.42602 895.48286,452.81175 C 915.75578,457.16818 916.41821,457.21006 915.37135,454.06953 C 914.44433,451.28842 910.70422,449.82803 859.84689,432.38899 C 839.32563,425.3522 815.75123,417.03314 807.45936,413.90216 C 791.67373,407.94153 773.91703,406.47137 766.38663,410.50153 C 762.20086,412.74168 762.22091,412.95298 767.27168,419.82938 C 770.114,423.69905 774.08206,430.47243 776.08961,434.88132 C 779.82783,443.09104 784.4085,469.42188 782.62376,472.44126 C 782.07746,473.36546 781.10089,480.27903 780.45355,487.80477 C 779.0613,503.99135 766.74767,542.80756 759.22458,554.72492 C 753.91158,563.14125 739.44665,577.20812 736.10517,577.20812 C 732.44191,577.20812 722.67265,562.06552 722.67265,556.38741 C 722.67265,549.36361 717.819,553.56861 712.78335,564.95507 C 707.13449,577.72815 706.57477,591.94755 711.37229,600.80207 C 714.49317,606.56214 716.09109,606.68233 729.0834,602.13417 z M 812.89331,550.67164 C 820.00941,546.811 842.23879,525.5056 842.32219,522.46598 C 842.34066,521.79224 843.1803,519.94075 844.18806,518.35152 C 847.1608,513.66348 844.55532,513.12197 830.9808,515.60666 C 813.9362,518.7265 801.54031,527.46186 797.42538,539.25307 C 794.80722,546.75533 794.75904,548.91191 797.14542,551.78732 C 800.77859,556.165 803.06644,556.00294 812.89331,550.67164 z M 839.60765,462.53045 C 838.96644,457.40013 837.80598,452.49135 837.02885,451.62207 C 835.68658,450.12063 813.41541,455.00674 811.11474,457.30738 C 808.71948,459.70264 813.06453,462.61653 823.02766,465.29643 C 828.79264,466.84711 834.4477,468.9579 835.59448,469.98709 C 839.70163,473.67304 840.75555,471.71481 839.60765,462.53045 z M 882.89216,408.34847 C 881.08145,407.29119 871.20491,403.92742 860.94428,400.8734 C 850.68365,397.81937 836.36266,392.81196 829.11985,389.7458 C 815.66545,384.05003 807.51753,383.01002 795.37499,385.43853 C 785.27528,387.45849 787.0142,392.1269 798.94153,395.01364 C 804.6754,396.40139 817.268,399.39571 826.92507,401.66771 C 836.58214,403.93972 847.93365,406.83488 852.15064,408.10142 C 861.589,410.93616 887.68305,411.14586 882.89216,408.34847 z M 895.51219,390.58275 C 901.76587,388.06909 901.71473,387.4729 894.41479,377.7896 C 880.38603,359.18057 871.19334,339.52068 872.46604,330.84912 L 873.42231,324.33362 L 862.97235,325.71988 C 857.22489,326.4823 849.4029,328.19358 845.59017,329.52269 C 839.55872,331.62528 838.83931,332.68799 840.05383,337.70126 C 841.74531,344.6832 854.59823,366.50848 857.01844,366.50848 C 857.97053,366.50848 858.74949,368.00877 858.74949,369.84248 C 858.74949,374.41356 851.75168,372.47854 825.56862,360.66743 C 803.39736,350.66603 790.52838,348.6823 783.0922,354.11977 C 775.77203,359.47241 780.39585,364.3137 792.82823,364.3137 C 798.89699,364.3137 809.54527,366.20176 816.49109,368.50942 C 823.43691,370.81707 837.41101,373.923 847.54459,375.41153 C 858.6019,377.03572 867.40724,379.55579 869.56526,381.71382 C 872.74761,384.89616 887.80177,393.07136 889.80823,392.70681 C 890.22935,392.6303 892.79614,391.67448 895.51219,390.58275 z"
           style="fill:#000000"
           id="path3344"
           sodipodi:nodetypes="cssssssscccssssscccsscccsssssssssssssssssssssssssssccsssssccssssccssssssccscccsssssssssssc" />
        <g
           id="g3524"
           transform="matrix(0.6246029,0,0,0.6246029,1066.1409,51.858408)"
           style="fill:#ffffff">
          <text
             id="text3526"
             y="787.24622"
             x="-183.90953"
             style="font-size:139.84580994px;font-style:italic;font-variant:normal;font-weight:bold;font-stretch:normal;text-indent:0;text-align:center;text-decoration:none;line-height:normal;letter-spacing:normal;word-spacing:normal;text-transform:none;direction:ltr;block-progression:tb;writing-mode:lr-tb;text-anchor:middle;fill:#ffffff;fill-opacity:1;fill-rule:nonzero;stroke:none;stroke-width:1px;stroke-linecap:butt;stroke-linejoin:miter;marker:none;marker-start:none;marker-mid:none;marker-end:none;stroke-miterlimit:4;stroke-dasharray:none;stroke-dashoffset:0;stroke-opacity:1;visibility:visible;display:inline;overflow:visible;enable-background:accumulate;font-family:El Abogado Loco;-inkscape-font-specification:El Abogado Loco Bold Italic"
             xml:space="preserve"><tspan
               style="font-style:italic;font-variant:normal;font-weight:bold;font-stretch:normal;fill:#ffffff;font-family:El Abogado Loco;-inkscape-font-specification:El Abogado Loco Bold Italic"
               id="tspan3528"
               y="787.24622"
               x="-183.90953"
               sodipodi:role="line">D</tspan></text>
          <text
             id="text3530"
             y="870.92627"
             x="-184.69479"
             style="font-size:139.84580994px;font-style:italic;font-variant:normal;font-weight:bold;font-stretch:normal;text-indent:0;text-align:center;text-decoration:none;line-height:normal;letter-spacing:normal;word-spacing:normal;text-transform:none;direction:ltr;block-progression:tb;writing-mode:lr-tb;text-anchor:middle;fill:#ffffff;fill-opacity:1;fill-rule:nonzero;stroke:none;stroke-width:1px;stroke-linecap:butt;stroke-linejoin:miter;marker:none;marker-start:none;marker-mid:none;marker-end:none;stroke-miterlimit:4;stroke-dasharray:none;stroke-dashoffset:0;stroke-opacity:1;visibility:visible;display:inline;overflow:visible;enable-background:accumulate;font-family:El Abogado Loco;-inkscape-font-specification:El Abogado Loco Bold Italic"
             xml:space="preserve"><tspan
               style="font-style:italic;font-variant:normal;font-weight:bold;font-stretch:normal;fill:#ffffff;font-family:El Abogado Loco;-inkscape-font-specification:El Abogado Loco Bold Italic"
               id="tspan3532"
               y="870.92627"
               x="-184.69479"
               sodipodi:role="line">O</tspan></text>
          <text
             id="text3534"
             y="613.87708"
             x="-181.14403"
             style="font-size:139.84580994px;font-style:italic;font-variant:normal;font-weight:bold;font-stretch:normal;text-indent:0;text-align:center;text-decoration:none;line-height:normal;letter-spacing:normal;word-spacing:normal;text-transform:none;direction:ltr;block-progression:tb;writing-mode:lr-tb;text-anchor:middle;fill:#ffffff;fill-opacity:1;fill-rule:nonzero;stroke:none;stroke-width:1px;stroke-linecap:butt;stroke-linejoin:miter;marker:none;marker-start:none;marker-mid:none;marker-end:none;stroke-miterlimit:4;stroke-dasharray:none;stroke-dashoffset:0;stroke-opacity:1;visibility:visible;display:inline;overflow:visible;enable-background:accumulate;font-family:El Abogado Loco;-inkscape-font-specification:El Abogado Loco Bold Italic"
             xml:space="preserve"><tspan
               style="font-style:italic;font-variant:normal;font-weight:bold;font-stretch:normal;fill:#ffffff;font-family:El Abogado Loco;-inkscape-font-specification:El Abogado Loco Bold Italic"
               id="tspan3536"
               y="613.87708"
               x="-181.14403"
               sodipodi:role="line">k</tspan></text>
          <text
             id="text3538"
             y="528.62653"
             x="-184.62651"
             style="font-size:139.84580994px;font-style:italic;font-variant:normal;font-weight:bold;font-stretch:normal;text-indent:0;text-align:center;text-decoration:none;line-height:normal;letter-spacing:normal;word-spacing:normal;text-transform:none;direction:ltr;block-progression:tb;writing-mode:lr-tb;text-anchor:middle;fill:#ffffff;fill-opacity:1;fill-rule:nonzero;stroke:none;stroke-width:1px;stroke-linecap:butt;stroke-linejoin:miter;marker:none;marker-start:none;marker-mid:none;marker-end:none;stroke-miterlimit:4;stroke-dasharray:none;stroke-dashoffset:0;stroke-opacity:1;visibility:visible;display:inline;overflow:visible;enable-background:accumulate;font-family:El Abogado Loco;-inkscape-font-specification:El Abogado Loco Bold Italic"
             xml:space="preserve"><tspan
               style="font-style:italic;font-variant:normal;font-weight:bold;font-stretch:normal;fill:#ffffff;font-family:El Abogado Loco;-inkscape-font-specification:El Abogado Loco Bold Italic"
               id="tspan3540"
               y="528.62653"
               x="-184.62651"
               sodipodi:role="line">I</tspan></text>
          <text
             id="text3542"
             y="703.22473"
             x="-187.80173"
             style="font-size:139.84580994px;font-style:italic;font-variant:normal;font-weight:bold;font-stretch:normal;text-indent:0;text-align:center;text-decoration:none;line-height:normal;letter-spacing:normal;word-spacing:normal;text-transform:none;direction:ltr;block-progression:tb;writing-mode:lr-tb;text-anchor:middle;fill:#ffffff;fill-opacity:1;fill-rule:nonzero;stroke:none;stroke-width:1px;stroke-linecap:butt;stroke-linejoin:miter;marker:none;marker-start:none;marker-mid:none;marker-end:none;stroke-miterlimit:4;stroke-dasharray:none;stroke-dashoffset:0;stroke-opacity:1;visibility:visible;display:inline;overflow:visible;enable-background:accumulate;font-family:El Abogado Loco;-inkscape-font-specification:El Abogado Loco Bold Italic"
             xml:space="preserve"><tspan
               style="font-style:italic;font-variant:normal;font-weight:bold;font-stretch:normal;fill:#ffffff;font-family:El Abogado Loco;-inkscape-font-specification:El Abogado Loco Bold Italic"
               id="tspan3544"
               y="703.22473"
               x="-187.80173"
               sodipodi:role="line">i</tspan></text>
        </g>
      </g>
      <text
         id="text3566"
         y="245.50513"
         x="67.562317"
         style="font-size:22.12723351px;font-style:normal;font-variant:normal;font-weight:normal;font-stretch:normal;text-indent:0;text-align:center;text-decoration:none;line-height:normal;letter-spacing:normal;word-spacing:normal;text-transform:none;direction:ltr;block-progression:tb;writing-mode:lr-tb;text-anchor:middle;fill:#ff0000;fill-opacity:1;fill-rule:nonzero;stroke:none;stroke-width:1px;stroke-linecap:butt;stroke-linejoin:miter;marker:none;marker-start:none;marker-mid:none;marker-end:none;stroke-miterlimit:4;stroke-dasharray:none;stroke-dashoffset:0;stroke-opacity:1;visibility:visible;display:inline;overflow:visible;enable-background:accumulate;font-family:Bitstream Vera Sans;-inkscape-font-specification:Bitstream Vera Sans"
         xml:space="preserve"><tspan
           y="245.50513"
           x="67.562317"
           id="tspan3568"
           sodipodi:role="line">1</tspan></text>
      <text
         id="text3570"
         y="243.52267"
         x="394.48831"
         style="font-size:22.12723351px;font-style:normal;font-variant:normal;font-weight:normal;font-stretch:normal;text-indent:0;text-align:center;text-decoration:none;line-height:normal;letter-spacing:normal;word-spacing:normal;text-transform:none;direction:ltr;block-progression:tb;writing-mode:lr-tb;text-anchor:middle;fill:#ff0000;fill-opacity:1;fill-rule:nonzero;stroke:none;stroke-width:1px;stroke-linecap:butt;stroke-linejoin:miter;marker:none;marker-start:none;marker-mid:none;marker-end:none;stroke-miterlimit:4;stroke-dasharray:none;stroke-dashoffset:0;stroke-opacity:1;visibility:visible;display:inline;overflow:visible;enable-background:accumulate;font-family:Bitstream Vera Sans;-inkscape-font-specification:Bitstream Vera Sans"
         xml:space="preserve"><tspan
           y="243.52267"
           x="394.48831"
           id="tspan3572"
           sodipodi:role="line">2</tspan></text>
      <text
         id="text3574"
         y="244.78494"
         x="772.33447"
         style="font-size:22.12723351px;font-style:normal;font-variant:normal;font-weight:normal;font-stretch:normal;text-indent:0;text-align:center;text-decoration:none;line-height:normal;letter-spacing:normal;word-spacing:normal;text-transform:none;direction:ltr;block-progression:tb;writing-mode:lr-tb;text-anchor:middle;fill:#ff0000;fill-opacity:1;fill-rule:nonzero;stroke:none;stroke-width:1px;stroke-linecap:butt;stroke-linejoin:miter;marker:none;marker-start:none;marker-mid:none;marker-end:none;stroke-miterlimit:4;stroke-dasharray:none;stroke-dashoffset:0;stroke-opacity:1;visibility:visible;display:inline;overflow:visible;enable-background:accumulate;font-family:Bitstream Vera Sans;-inkscape-font-specification:Bitstream Vera Sans"
         xml:space="preserve"><tspan
           y="244.78494"
           x="772.33447"
           id="tspan3576"
           sodipodi:role="line">3</tspan></text>
      <text
         id="text3578"
         y="591.99585"
         x="86.844231"
         style="font-size:22.12723351px;font-style:normal;font-variant:normal;font-weight:normal;font-stretch:normal;text-indent:0;text-align:center;text-decoration:none;line-height:normal;letter-spacing:normal;word-spacing:normal;text-transform:none;direction:ltr;block-progression:tb;writing-mode:lr-tb;text-anchor:middle;fill:#ff0000;fill-opacity:1;fill-rule:nonzero;stroke:none;stroke-width:1px;stroke-linecap:butt;stroke-linejoin:miter;marker:none;marker-start:none;marker-mid:none;marker-end:none;stroke-miterlimit:4;stroke-dasharray:none;stroke-dashoffset:0;stroke-opacity:1;visibility:visible;display:inline;overflow:visible;enable-background:accumulate;font-family:Bitstream Vera Sans;-inkscape-font-specification:Bitstream Vera Sans"
         xml:space="preserve"><tspan
           y="591.99585"
           x="86.844231"
           id="tspan3580"
           sodipodi:role="line">4</tspan></text>
      <text
         id="text3582"
         y="587.53009"
         x="445.21942"
         style="font-size:22.12723351px;font-style:normal;font-variant:normal;font-weight:normal;font-stretch:normal;text-indent:0;text-align:center;text-decoration:none;line-height:normal;letter-spacing:normal;word-spacing:normal;text-transform:none;direction:ltr;block-progression:tb;writing-mode:lr-tb;text-anchor:middle;fill:#ff0000;fill-opacity:1;fill-rule:nonzero;stroke:none;stroke-width:1px;stroke-linecap:butt;stroke-linejoin:miter;marker:none;marker-start:none;marker-mid:none;marker-end:none;stroke-miterlimit:4;stroke-dasharray:none;stroke-dashoffset:0;stroke-opacity:1;visibility:visible;display:inline;overflow:visible;enable-background:accumulate;font-family:Bitstream Vera Sans;-inkscape-font-specification:Bitstream Vera Sans"
         xml:space="preserve"><tspan
           y="587.53009"
           x="445.21942"
           id="tspan3584"
           sodipodi:role="line">5</tspan></text>
      <text
         id="text3586"
         y="589.76294"
         x="777.91663"
         style="font-size:22.12723351px;font-style:normal;font-variant:normal;font-weight:normal;font-stretch:normal;text-indent:0;text-align:center;text-decoration:none;line-height:normal;letter-spacing:normal;word-spacing:normal;text-transform:none;direction:ltr;block-progression:tb;writing-mode:lr-tb;text-anchor:middle;fill:#ff0000;fill-opacity:1;fill-rule:nonzero;stroke:none;stroke-width:1px;stroke-linecap:butt;stroke-linejoin:miter;marker:none;marker-start:none;marker-mid:none;marker-end:none;stroke-miterlimit:4;stroke-dasharray:none;stroke-dashoffset:0;stroke-opacity:1;visibility:visible;display:inline;overflow:visible;enable-background:accumulate;font-family:Bitstream Vera Sans;-inkscape-font-specification:Bitstream Vera Sans"
         xml:space="preserve"><tspan
           y="589.76294"
           x="777.91663"
           id="tspan3588"
           sodipodi:role="line">6</tspan></text>
    </g>
  </g>
</svg>
