<?xml version="1.0" encoding="UTF-8" standalone="no"?>
<!-- Created with Inkscape (http://www.inkscape.org/) -->
<svg
   xmlns:dc="http://purl.org/dc/elements/1.1/"
   xmlns:cc="http://creativecommons.org/ns#"
   xmlns:rdf="http://www.w3.org/1999/02/22-rdf-syntax-ns#"
   xmlns:svg="http://www.w3.org/2000/svg"
   xmlns="http://www.w3.org/2000/svg"
   xmlns:sodipodi="http://sodipodi.sourceforge.net/DTD/sodipodi-0.dtd"
   xmlns:inkscape="http://www.inkscape.org/namespaces/inkscape"
   width="210mm"
   height="297mm"
   id="svg2542"
   sodipodi:version="0.32"
   inkscape:version="0.46"
   sodipodi:docname="logo-ikido.svg"
   inkscape:output_extension="org.inkscape.output.svg.inkscape"
   inkscape:export-filename="/workspaces/opensource/ikido/docs/logo-ikido.png"
   inkscape:export-xdpi="58.154884"
   inkscape:export-ydpi="58.154884">
  <defs
     id="defs2544">
    <inkscape:perspective
       sodipodi:type="inkscape:persp3d"
       inkscape:vp_x="0 : 526.18109 : 1"
       inkscape:vp_y="0 : 1000 : 0"
       inkscape:vp_z="744.09448 : 526.18109 : 1"
       inkscape:persp3d-origin="372.04724 : 350.78739 : 1"
       id="perspective2550" />
  </defs>
  <sodipodi:namedview
     id="base"
     pagecolor="#ffffff"
     bordercolor="#666666"
     borderopacity="1.0"
     inkscape:pageopacity="0.0"
     inkscape:pageshadow="2"
     inkscape:zoom="0.35"
     inkscape:cx="350"
     inkscape:cy="520"
     inkscape:document-units="px"
     inkscape:current-layer="layer1"
     showgrid="false"
     inkscape:window-width="640"
     inkscape:window-height="673"
     inkscape:window-x="0"
     inkscape:window-y="0" />
  <metadata
     id="metadata2547">
    <rdf:RDF>
      <cc:Work
         rdf:about="">
        <dc:format>image/svg+xml</dc:format>
        <dc:type
           rdf:resource="http://purl.org/dc/dcmitype/StillImage" />
      </cc:Work>
    </rdf:RDF>
  </metadata>
  <g
     inkscape:label="Camada 1"
     inkscape:groupmode="layer"
     id="layer1">
    <g
       id="g2566"
       transform="matrix(2.4463464,0,0,2.4463464,-650.76693,-563.83623)"
       inkscape:export-filename="/workspaces/opensource/ikido/docs/logo_ikido.png"
       inkscape:export-xdpi="48.48"
       inkscape:export-ydpi="48.48">
      <g
         transform="translate(-435.97499,-89.623936)"
         id="g2527">
        <rect
           style="fill:#000000;fill-opacity:1;stroke:#000000;stroke-width:5.2311821;stroke-miterlimit:4;stroke-dasharray:none;stroke-opacity:1"
           id="rect3364"
           width="46.948383"
           height="277.6543"
           x="931.40326"
           y="326.01611"
           ry="5.3460627" />
        <path
           d="M 729.0834,602.13417 C 743.84881,596.96527 770.95798,577.82707 770.95798,572.57199 C 770.95798,571.67349 774.32407,565.18857 778.4382,558.16101 C 783.03429,550.31021 788.26689,536.07511 792.00939,521.24103 C 797.50137,499.47259 798.07846,493.59095 797.87765,461.43306 C 797.68536,430.6427 798.11821,425.76775 801.04436,425.76775 C 806.60195,425.76775 844.17452,434.57137 848.29448,436.83892 C 850.39058,437.99259 853.54216,438.93648 855.29799,438.93648 C 861.8749,438.93648 860.77617,443.19989 853.2829,446.75568 L 845.51963,450.43958 L 846.65779,462.79503 C 847.28379,469.59054 848.36367,477.86653 849.05755,481.18614 C 850.55016,488.3272 850.93954,488.27461 831.03471,483.61981 C 813.79392,479.58801 808.0427,480.39394 809.66922,486.61376 C 810.4959,489.77501 814.37666,491.24431 827.35261,493.30886 C 848.63087,496.69439 850.78762,498.47552 849.10076,511.26927 C 848.37763,516.75373 847.17805,534.2977 846.43502,550.25585 L 845.08406,579.27069 L 850.90781,581.92416 C 862.75856,587.32374 871.9271,579.34687 878.0637,558.29778 C 881.46412,546.63393 881.44446,546.48109 876.54262,546.48109 C 871.12627,546.48109 869.79015,542.54388 868.19742,521.88971 L 866.87802,504.78011 L 876.53119,504.9471 C 881.84041,505.03892 889.58151,506.34153 893.7336,507.84179 C 901.74977,510.7382 905.39365,515.75406 899.48164,515.75406 C 889.18444,515.75406 888.88944,553.32514 899.13293,560.16491 C 904.17438,563.53117 911.40079,561.7262 915.02461,556.19557 C 918.5534,550.80991 918.49171,550.06803 913.70108,540.28335 C 902.92382,518.27121 903.72472,512.28487 917.33453,513.12468 C 934.30491,514.17186 932.19026,509.91935 913.2718,504.95442 C 886.35128,497.88947 887.50928,498.62652 894.21522,492.82484 C 900.17519,487.66852 907.03484,476.34824 907.03484,471.66897 C 907.03484,469.84951 904.07863,469.47206 897.20626,470.41401 C 883.3691,472.3106 878.62308,475.90551 877.05267,485.67944 C 876.07384,491.7716 874.76027,493.83002 872.16981,493.33114 C 867.91951,492.51259 867.10648,482.3791 870.00992,466.40976 C 873.08676,449.48665 875.07362,448.42602 895.48286,452.81175 C 915.75578,457.16818 916.41821,457.21006 915.37135,454.06953 C 914.44433,451.28842 910.70422,449.82803 859.84689,432.38899 C 839.32563,425.3522 815.75123,417.03314 807.45936,413.90216 C 791.67373,407.94153 773.91703,406.47137 766.38663,410.50153 C 762.20086,412.74168 762.22091,412.95298 767.27168,419.82938 C 770.114,423.69905 774.08206,430.47243 776.08961,434.88132 C 779.82783,443.09104 784.4085,469.42188 782.62376,472.44126 C 782.07746,473.36546 781.10089,480.27903 780.45355,487.80477 C 779.0613,503.99135 766.74767,542.80756 759.22458,554.72492 C 753.91158,563.14125 739.44665,577.20812 736.10517,577.20812 C 732.44191,577.20812 722.67265,562.06552 722.67265,556.38741 C 722.67265,549.36361 717.819,553.56861 712.78335,564.95507 C 707.13449,577.72815 706.57477,591.94755 711.37229,600.80207 C 714.49317,606.56214 716.09109,606.68233 729.0834,602.13417 z M 812.89331,550.67164 C 820.00941,546.811 842.23879,525.5056 842.32219,522.46598 C 842.34066,521.79224 843.1803,519.94075 844.18806,518.35152 C 847.1608,513.66348 844.55532,513.12197 830.9808,515.60666 C 813.9362,518.7265 801.54031,527.46186 797.42538,539.25307 C 794.80722,546.75533 794.75904,548.91191 797.14542,551.78732 C 800.77859,556.165 803.06644,556.00294 812.89331,550.67164 z M 839.60765,462.53045 C 838.96644,457.40013 837.80598,452.49135 837.02885,451.62207 C 835.68658,450.12063 813.41541,455.00674 811.11474,457.30738 C 808.71948,459.70264 813.06453,462.61653 823.02766,465.29643 C 828.79264,466.84711 834.4477,468.9579 835.59448,469.98709 C 839.70163,473.67304 840.75555,471.71481 839.60765,462.53045 z M 882.89216,408.34847 C 881.08145,407.29119 871.20491,403.92742 860.94428,400.8734 C 850.68365,397.81937 836.36266,392.81196 829.11985,389.7458 C 815.66545,384.05003 807.51753,383.01002 795.37499,385.43853 C 785.27528,387.45849 787.0142,392.1269 798.94153,395.01364 C 804.6754,396.40139 817.268,399.39571 826.92507,401.66771 C 836.58214,403.93972 847.93365,406.83488 852.15064,408.10142 C 861.589,410.93616 887.68305,411.14586 882.89216,408.34847 z M 895.51219,390.58275 C 901.76587,388.06909 901.71473,387.4729 894.41479,377.7896 C 880.38603,359.18057 871.19334,339.52068 872.46604,330.84912 L 873.42231,324.33362 L 862.97235,325.71988 C 857.22489,326.4823 849.4029,328.19358 845.59017,329.52269 C 839.55872,331.62528 838.83931,332.68799 840.05383,337.70126 C 841.74531,344.6832 854.59823,366.50848 857.01844,366.50848 C 857.97053,366.50848 858.74949,368.00877 858.74949,369.84248 C 858.74949,374.41356 851.75168,372.47854 825.56862,360.66743 C 803.39736,350.66603 790.52838,348.6823 783.0922,354.11977 C 775.77203,359.47241 780.39585,364.3137 792.82823,364.3137 C 798.89699,364.3137 809.54527,366.20176 816.49109,368.50942 C 823.43691,370.81707 837.41101,373.923 847.54459,375.41153 C 858.6019,377.03572 867.40724,379.55579 869.56526,381.71382 C 872.74761,384.89616 887.80177,393.07136 889.80823,392.70681 C 890.22935,392.6303 892.79614,391.67448 895.51219,390.58275 z"
           style="fill:#000000"
           id="path3344"
           sodipodi:nodetypes="cssssssscccssssscccsscccsssssssssssssssssssssssssssccsssssccssssccssssssccscccsssssssssssc" />
        <g
           id="g3524"
           transform="matrix(0.6246029,0,0,0.6246029,1066.1409,51.858408)"
           style="fill:#ffffff">
          <text
             id="text3526"
             y="787.24622"
             x="-183.90953"
             style="font-size:139.84580994px;font-style:italic;font-variant:normal;font-weight:bold;font-stretch:normal;text-indent:0;text-align:center;text-decoration:none;line-height:normal;letter-spacing:normal;word-spacing:normal;text-transform:none;direction:ltr;block-progression:tb;writing-mode:lr-tb;text-anchor:middle;fill:#ffffff;fill-opacity:1;fill-rule:nonzero;stroke:none;stroke-width:1px;stroke-linecap:butt;stroke-linejoin:miter;marker:none;marker-start:none;marker-mid:none;marker-end:none;stroke-miterlimit:4;stroke-dasharray:none;stroke-dashoffset:0;stroke-opacity:1;visibility:visible;display:inline;overflow:visible;enable-background:accumulate;font-family:El Abogado Loco;-inkscape-font-specification:El Abogado Loco Bold Italic"
             xml:space="preserve"><tspan
               style="font-style:italic;font-variant:normal;font-weight:bold;font-stretch:normal;fill:#ffffff;font-family:El Abogado Loco;-inkscape-font-specification:El Abogado Loco Bold Italic"
               id="tspan3528"
               y="787.24622"
               x="-183.90953"
               sodipodi:role="line">D</tspan></text>
          <text
             id="text3530"
             y="870.92627"
             x="-184.69479"
             style="font-size:139.84580994px;font-style:italic;font-variant:normal;font-weight:bold;font-stretch:normal;text-indent:0;text-align:center;text-decoration:none;line-height:normal;letter-spacing:normal;word-spacing:normal;text-transform:none;direction:ltr;block-progression:tb;writing-mode:lr-tb;text-anchor:middle;fill:#ffffff;fill-opacity:1;fill-rule:nonzero;stroke:none;stroke-width:1px;stroke-linecap:butt;stroke-linejoin:miter;marker:none;marker-start:none;marker-mid:none;marker-end:none;stroke-miterlimit:4;stroke-dasharray:none;stroke-dashoffset:0;stroke-opacity:1;visibility:visible;display:inline;overflow:visible;enable-background:accumulate;font-family:El Abogado Loco;-inkscape-font-specification:El Abogado Loco Bold Italic"
             xml:space="preserve"><tspan
               style="font-style:italic;font-variant:normal;font-weight:bold;font-stretch:normal;fill:#ffffff;font-family:El Abogado Loco;-inkscape-font-specification:El Abogado Loco Bold Italic"
               id="tspan3532"
               y="870.92627"
               x="-184.69479"
               sodipodi:role="line">O</tspan></text>
          <text
             id="text3534"
             y="613.87708"
             x="-181.14403"
             style="font-size:139.84580994px;font-style:italic;font-variant:normal;font-weight:bold;font-stretch:normal;text-indent:0;text-align:center;text-decoration:none;line-height:normal;letter-spacing:normal;word-spacing:normal;text-transform:none;direction:ltr;block-progression:tb;writing-mode:lr-tb;text-anchor:middle;fill:#ffffff;fill-opacity:1;fill-rule:nonzero;stroke:none;stroke-width:1px;stroke-linecap:butt;stroke-linejoin:miter;marker:none;marker-start:none;marker-mid:none;marker-end:none;stroke-miterlimit:4;stroke-dasharray:none;stroke-dashoffset:0;stroke-opacity:1;visibility:visible;display:inline;overflow:visible;enable-background:accumulate;font-family:El Abogado Loco;-inkscape-font-specification:El Abogado Loco Bold Italic"
             xml:space="preserve"><tspan
               style="font-style:italic;font-variant:normal;font-weight:bold;font-stretch:normal;fill:#ffffff;font-family:El Abogado Loco;-inkscape-font-specification:El Abogado Loco Bold Italic"
               id="tspan3536"
               y="613.87708"
               x="-181.14403"
               sodipodi:role="line">k</tspan></text>
          <text
             id="text3538"
             y="528.62653"
             x="-184.62651"
             style="font-size:139.84580994px;font-style:italic;font-variant:normal;font-weight:bold;font-stretch:normal;text-indent:0;text-align:center;text-decoration:none;line-height:normal;letter-spacing:normal;word-spacing:normal;text-transform:none;direction:ltr;block-progression:tb;writing-mode:lr-tb;text-anchor:middle;fill:#ffffff;fill-opacity:1;fill-rule:nonzero;stroke:none;stroke-width:1px;stroke-linecap:butt;stroke-linejoin:miter;marker:none;marker-start:none;marker-mid:none;marker-end:none;stroke-miterlimit:4;stroke-dasharray:none;stroke-dashoffset:0;stroke-opacity:1;visibility:visible;display:inline;overflow:visible;enable-background:accumulate;font-family:El Abogado Loco;-inkscape-font-specification:El Abogado Loco Bold Italic"
             xml:space="preserve"><tspan
               style="font-style:italic;font-variant:normal;font-weight:bold;font-stretch:normal;fill:#ffffff;font-family:El Abogado Loco;-inkscape-font-specification:El Abogado Loco Bold Italic"
               id="tspan3540"
               y="528.62653"
               x="-184.62651"
               sodipodi:role="line">I</tspan></text>
          <text
             id="text3542"
             y="703.22473"
             x="-187.80173"
             style="font-size:139.84580994px;font-style:italic;font-variant:normal;font-weight:bold;font-stretch:normal;text-indent:0;text-align:center;text-decoration:none;line-height:normal;letter-spacing:normal;word-spacing:normal;text-transform:none;direction:ltr;block-progression:tb;writing-mode:lr-tb;text-anchor:middle;fill:#ffffff;fill-opacity:1;fill-rule:nonzero;stroke:none;stroke-width:1px;stroke-linecap:butt;stroke-linejoin:miter;marker:none;marker-start:none;marker-mid:none;marker-end:none;stroke-miterlimit:4;stroke-dasharray:none;stroke-dashoffset:0;stroke-opacity:1;visibility:visible;display:inline;overflow:visible;enable-background:accumulate;font-family:El Abogado Loco;-inkscape-font-specification:El Abogado Loco Bold Italic"
             xml:space="preserve"><tspan
               style="font-style:italic;font-variant:normal;font-weight:bold;font-stretch:normal;fill:#ffffff;font-family:El Abogado Loco;-inkscape-font-specification:El Abogado Loco Bold Italic"
               id="tspan3544"
               y="703.22473"
               x="-187.80173"
               sodipodi:role="line">i</tspan></text>
        </g>
      </g>
    </g>
  </g>
</svg>
